<svg xmlns="http://www.w3.org/2000/svg" xmlns:xlink="http://www.w3.org/1999/xlink" version="1.1" x="0px" y="0px" viewBox="0 0 64 80" style="enable-background:new 0 0 64 64;" xml:space="preserve"><path d="M20.5,45h-9c-0.276,0-0.5-0.224-0.5-0.5v-6c0-0.276,0.224-0.5,0.5-0.5s0.5,0.224,0.5,0.5V44h8.5c0.276,0,0.5,0.224,0.5,0.5  S20.776,45,20.5,45z"/><path d="M59.5,45h-26c-0.276,0-0.5-0.224-0.5-0.5s0.224-0.5,0.5-0.5H59V19H34.5c-0.276,0-0.5-0.224-0.5-0.5s0.224-0.5,0.5-0.5h25  c0.276,0,0.5,0.224,0.5,0.5v26C60,44.776,59.776,45,59.5,45z"/><path d="M27.5,61c-0.035,0-0.072-0.004-0.108-0.012c-0.27-0.06-0.439-0.327-0.38-0.597l2-9c0.06-0.269,0.324-0.437,0.597-0.38  c0.27,0.06,0.439,0.327,0.38,0.597l-2,9C27.937,60.841,27.729,61,27.5,61z"/><path d="M43.5,61c-0.229,0-0.437-0.159-0.488-0.392l-2-9c-0.06-0.27,0.11-0.537,0.38-0.597c0.273-0.057,0.537,0.111,0.597,0.38l2,9  c0.06,0.27-0.11,0.537-0.38,0.597C43.572,60.996,43.535,61,43.5,61z"/><path d="M49.5,52H11.224C9.446,52,8,50.534,8,48.731V38.5C8,38.224,8.224,38,8.5,38S9,38.224,9,38.5v10.231  C9,49.982,9.997,51,11.224,51H49.5c0.276,0,0.5,0.224,0.5,0.5S49.776,52,49.5,52z"/><path d="M59.776,52H57.5c-0.276,0-0.5-0.224-0.5-0.5s0.224-0.5,0.5-0.5h2.276C61.003,51,62,49.982,62,48.731V18.269  C62,17.018,61.003,16,59.776,16H34.5c-0.276,0-0.5-0.224-0.5-0.5s0.224-0.5,0.5-0.5h25.276C61.554,15,63,16.466,63,18.269v30.462  C63,50.534,61.554,52,59.776,52z"/><path d="M55,63h-3c-1.654,0-3-1.346-3-3v-9c0-1.654,1.346-3,3-3h3c1.654,0,3,1.346,3,3v9C58,61.654,56.654,63,55,63z M52,49  c-1.103,0-2,0.897-2,2v9c0,1.103,0.897,2,2,2h3c1.103,0,2-0.897,2-2v-9c0-1.103-0.897-2-2-2H52z"/><path d="M53.5,54c-0.276,0-0.5-0.224-0.5-0.5v-2c0-0.276,0.224-0.5,0.5-0.5s0.5,0.224,0.5,0.5v2C54,53.776,53.776,54,53.5,54z"/><path d="M45.5,63h-20c-0.827,0-1.5-0.673-1.5-1.5s0.673-1.5,1.5-1.5h20c0.827,0,1.5,0.673,1.5,1.5S46.327,63,45.5,63z M25.5,61  c-0.275,0-0.5,0.224-0.5,0.5s0.225,0.5,0.5,0.5h20c0.275,0,0.5-0.224,0.5-0.5S45.775,61,45.5,61H25.5z"/><path d="M34.5,39h-33C1.224,39,1,38.776,1,38.5v-37C1,1.224,1.224,1,1.5,1h33C34.776,1,35,1.224,35,1.5v37  C35,38.776,34.776,39,34.5,39z M2,38h32V2H2V38z"/><path d="M57.5,13h-16c-0.276,0-0.5-0.224-0.5-0.5v-9C41,3.224,41.224,3,41.5,3h16C57.776,3,58,3.224,58,3.5v9  C58,12.776,57.776,13,57.5,13z M42,12h15V4H42V12z"/><path d="M56.5,26h-19c-0.276,0-0.5-0.224-0.5-0.5v-4c0-0.276,0.224-0.5,0.5-0.5h19c0.276,0,0.5,0.224,0.5,0.5v4  C57,25.776,56.776,26,56.5,26z M38,25h18v-3H38V25z"/><path d="M43.5,36h-6c-0.276,0-0.5-0.224-0.5-0.5v-4c0-0.276,0.224-0.5,0.5-0.5h6c0.276,0,0.5,0.224,0.5,0.5v4  C44,35.776,43.776,36,43.5,36z M38,35h5v-3h-5V35z"/><path d="M56.5,36h-10c-0.276,0-0.5-0.224-0.5-0.5v-4c0-0.276,0.224-0.5,0.5-0.5h10c0.276,0,0.5,0.224,0.5,0.5v4  C57,35.776,56.776,36,56.5,36z M47,35h9v-3h-9V35z"/><path d="M56.5,42h-42c-0.276,0-0.5-0.224-0.5-0.5s0.224-0.5,0.5-0.5h42c0.276,0,0.5,0.224,0.5,0.5S56.776,42,56.5,42z"/><path d="M56.5,39h-19c-0.276,0-0.5-0.224-0.5-0.5s0.224-0.5,0.5-0.5h19c0.276,0,0.5,0.224,0.5,0.5S56.776,39,56.5,39z"/><path d="M56.5,29h-19c-0.276,0-0.5-0.224-0.5-0.5s0.224-0.5,0.5-0.5h19c0.276,0,0.5,0.224,0.5,0.5S56.776,29,56.5,29z"/><path d="M7.5,10C6.121,10,5,8.878,5,7.5S6.121,5,7.5,5S10,6.122,10,7.5S8.879,10,7.5,10z M7.5,6C6.673,6,6,6.673,6,7.5  S6.673,9,7.5,9S9,8.327,9,7.5S8.327,6,7.5,6z"/><path d="M9.5,13h-4C5.224,13,5,12.776,5,12.5S5.224,12,5.5,12h4c0.276,0,0.5,0.224,0.5,0.5S9.776,13,9.5,13z"/><path d="M20.5,13h-5c-0.276,0-0.5-0.224-0.5-0.5s0.224-0.5,0.5-0.5h5c0.276,0,0.5,0.224,0.5,0.5S20.776,13,20.5,13z"/><path d="M28.5,10C27.121,10,26,8.878,26,7.5S27.121,5,28.5,5S31,6.122,31,7.5S29.879,10,28.5,10z M28.5,6C27.673,6,27,6.673,27,7.5  S27.673,9,28.5,9S30,8.327,30,7.5S29.327,6,28.5,6z"/><path d="M30.5,13h-4c-0.276,0-0.5-0.224-0.5-0.5s0.224-0.5,0.5-0.5h4c0.276,0,0.5,0.224,0.5,0.5S30.776,13,30.5,13z"/><path d="M20.5,10h-5C15.224,10,15,9.776,15,9.5v-4C15,5.224,15.224,5,15.5,5h5C20.776,5,21,5.224,21,5.5v4  C21,9.776,20.776,10,20.5,10z M16,9h4V6h-4V9z"/><path d="M30.5,23h-25C5.224,23,5,22.776,5,22.5S5.224,22,5.5,22h25c0.276,0,0.5,0.224,0.5,0.5S30.776,23,30.5,23z"/><path d="M30.5,35h-25C5.224,35,5,34.776,5,34.5S5.224,34,5.5,34h25c0.276,0,0.5,0.224,0.5,0.5S30.776,35,30.5,35z"/><path d="M52.5,7h-2C50.224,7,50,6.776,50,6.5S50.224,6,50.5,6h2C52.776,6,53,6.224,53,6.5S52.776,7,52.5,7z"/><path d="M54.5,10h-4C50.224,10,50,9.776,50,9.5S50.224,9,50.5,9h4C54.776,9,55,9.224,55,9.5S54.776,10,54.5,10z"/><path d="M48.5,10h-4C44.224,10,44,9.776,44,9.5v-3C44,6.224,44.224,6,44.5,6h4C48.776,6,49,6.224,49,6.5v3  C49,9.776,48.776,10,48.5,10z M45,9h3V7h-3V9z"/><path d="M28.5,45h-5c-0.276,0-0.5-0.224-0.5-0.5s0.224-0.5,0.5-0.5h5c0.276,0,0.5,0.224,0.5,0.5S28.776,45,28.5,45z"/><text x="0" y="79" fill="#000000" font-size="5px" font-weight="bold" font-family="'Helvetica Neue', Helvetica, Arial-Unicode, Arial, Sans-serif">Created by Silvia Natalia</text><text x="0" y="84" fill="#000000" font-size="5px" font-weight="bold" font-family="'Helvetica Neue', Helvetica, Arial-Unicode, Arial, Sans-serif">from the Noun Project</text></svg>