<svg xmlns="http://www.w3.org/2000/svg" version="1.1" viewBox="-5.0 -10.0 110.0 135.0">
 <path d="m59.238 63.219c0.30078 0.33984 0.71094 0.51172 1.1289 0.51172 0.35156 0 0.69922-0.12109 0.98828-0.37109l9.0391-7.9492-9.0391-7.9492c-0.62109-0.55078-1.5703-0.48828-2.1211 0.14062-0.55078 0.62109-0.48828 1.5703 0.14062 2.1211l6.4805 5.6992-6.4805 5.6992c-0.62109 0.55078-0.67969 1.4883-0.14062 2.1211z"/>
 <path d="m39.641 63.73c0.42188 0 0.82812-0.17188 1.1289-0.51172 0.55078-0.62109 0.48828-1.5703-0.14062-2.1211l-6.4805-5.6992 6.4805-5.6992c0.62109-0.55078 0.67969-1.4883 0.14062-2.1211-0.55078-0.62109-1.4883-0.67969-2.1211-0.14062l-9.0508 7.9492 9.0508 7.9492c0.28125 0.25 0.64062 0.37109 0.98828 0.37109z"/>
 <path d="m45.922 67.82c0.16016 0.058594 0.32812 0.078126 0.48828 0.078126 0.62109 0 1.1992-0.39063 1.4219-1.0117l7.1914-20.73c0.26953-0.78125-0.14063-1.6406-0.92969-1.9102-0.78125-0.26953-1.6406 0.14062-1.9102 0.92969l-7.1914 20.73c-0.26953 0.78125 0.14062 1.6406 0.92969 1.9102z"/>
 <path d="m18.461 80.98h63.078c4.6719 0 8.4609-3.8008 8.4609-8.4609v-45.039c0-4.6602-3.7891-8.4609-8.4609-8.4609h-63.078c-4.6602 0-8.4609 3.8008-8.4609 8.4609v45.039c0 4.6602 3.8008 8.4609 8.4609 8.4609zm-5.4609-53.5c0-3.0117 2.4492-5.4609 5.4609-5.4609h63.078c3.0117 0 5.4609 2.4492 5.4609 5.4609v5.2891h-74zm0 8.2891h74v36.75c0 3.0117-2.4492 5.4609-5.4609 5.4609h-63.078c-3.0117 0-5.4609-2.4492-5.4609-5.4609z"/>
 <path d="m81.16 25.73c-1.1094 0-2.0117 0.89844-2.0117 2.0117 0 1.1094 0.89844 2 2.0117 2 1.1094 0 2.0117-0.89844 2.0117-2 0-1.1016-0.89844-2.0117-2.0117-2.0117z"/>
 <path d="m75.41 25.73c-1.1094 0-2.0117 0.89844-2.0117 2.0117 0 1.1094 0.89844 2 2.0117 2 1.1094 0 2.0117-0.89844 2.0117-2 0-1.1016-0.91016-2.0117-2.0117-2.0117z"/>
 <path d="m69.648 25.73c-1.1016 0-2 0.89844-2 2.0117 0 1.1094 0.89844 2 2 2 1.1016 0 2.0117-0.89844 2.0117-2 0-1.1016-0.89844-2.0117-2.0117-2.0117z"/>
<text x="0.0" y="117.5" font-size="5.0" font-weight="bold" font-family="Arbeit Regular, Helvetica, Arial-Unicode, Arial, Sans-serif" fill="#000000">Created by Kosong Tujuh</text><text x="0.0" y="122.5" font-size="5.0" font-weight="bold" font-family="Arbeit Regular, Helvetica, Arial-Unicode, Arial, Sans-serif" fill="#000000">from Noun Project</text></svg>