<?xml version="1.0" encoding="UTF-8"?>
<svg xmlns="http://www.w3.org/2000/svg" xmlns:xlink="http://www.w3.org/1999/xlink" id="e82BkM4uXQh1" viewBox="0 0 960.5 641.8" shape-rendering="geometricPrecision" text-rendering="geometricPrecision">
  <style>
#e82BkM4uXQh12_ts {animation: e82BkM4uXQh12_ts__ts 3200ms linear infinite normal forwards}@keyframes e82BkM4uXQh12_ts__ts { 0% {transform: translate(116.5px,399.100006px) scale(0.432189,0.432189)} 15.625% {transform: translate(116.5px,399.100006px) scale(1,1)} 31.25% {transform: translate(116.5px,399.100006px) scale(0.432189,0.432189)} 34.375% {transform: translate(116.5px,399.100006px) scale(0.432189,0.432189)} 50% {transform: translate(116.5px,399.100006px) scale(1,1)} 65.625% {transform: translate(116.5px,399.100006px) scale(0.432189,0.432189)} 68.75% {transform: translate(116.5px,399.100006px) scale(0.432189,0.432189)} 84.375% {transform: translate(116.5px,399.100006px) scale(1,1)} 100% {transform: translate(116.5px,399.100006px) scale(0.432189,0.432189)}} #e82BkM4uXQh12 {animation: e82BkM4uXQh12_c_o 3200ms linear infinite normal forwards}@keyframes e82BkM4uXQh12_c_o { 0% {opacity: 1} 15.625% {opacity: 0} 31.25% {opacity: 0} 34.375% {opacity: 1} 50% {opacity: 0} 65.625% {opacity: 0} 68.75% {opacity: 1} 84.375% {opacity: 0} 100% {opacity: 0}} #e82BkM4uXQh13_ts {animation: e82BkM4uXQh13_ts__ts 3200ms linear infinite normal forwards}@keyframes e82BkM4uXQh13_ts__ts { 0% {transform: translate(116.5px,399.100006px) scale(0.760797,0.760797)} 6.25% {transform: translate(116.5px,399.100006px) scale(0.994033,0.994033)} 31.25% {transform: translate(116.5px,399.100006px) scale(0.994033,0.994033)} 34.375% {transform: translate(116.5px,399.100006px) scale(0.760797,0.760797)} 40.625% {transform: translate(116.5px,399.100006px) scale(0.994033,0.994033)} 65.625% {transform: translate(116.5px,399.100006px) scale(0.994033,0.994033)} 68.75% {transform: translate(116.5px,399.100006px) scale(0.760797,0.760797)} 75% {transform: translate(116.5px,399.100006px) scale(0.994033,0.994033)} 100% {transform: translate(116.5px,399.100006px) scale(0.994033,0.994033)}}
</style>
  <path d="M7,0h953.6v0v101.4v0h-960.5v0-94.4C0,3.1,3.2,0,7,0Z" fill="#22232e"></path>
  <g transform="translate(-652.979-10004.5)">
    <ellipse rx="11.8" ry="12.4" transform="translate(712.4 10055.3)" fill="#f0dbb7"></ellipse>
    <ellipse rx="11.8" ry="12.4" transform="translate(750.7 10055.3)" fill="#f0dbb7"></ellipse>
    <ellipse rx="11.8" ry="12.4" transform="translate(787.5 10055.3)" fill="#f0dbb7"></ellipse>
  </g>
  <path d="M236.5,193.7h717.1c3.9,0,7,3.1,7,7v434.1c0,3.9-3.1,7-7,7h-717.1c-3.9,0-7-3.1-7-7v-434.1c0-3.9,3.1-7,7-7Z" fill="#debfbf"></path>
  <g transform="translate(-700.556-9902.15)">
    <path d="M750.6,10042.9h488c27.6,0,50,22.4,50,50v5.9c0,27.6-22.4,50-50,50h-488c-27.6,0-50-22.4-50-50v-5.9c0-27.6,22.4-50,50-50Z" fill="none"></path>
    <path d="M750.6,10044.4h488c26.8,0,48.5,21.7,48.5,48.5v5.9c0,26.8-21.7,48.5-48.5,48.5h-488c-26.8,0-48.5-21.7-48.5-48.5v-5.9c0-26.8,21.7-48.5,48.5-48.5Z" fill="none" stroke="#4453f7" stroke-width="3"></path>
  </g>
  <path d="M7,286h102.5c3.9,0,7,3.1,7,7v99.1c0,3.9-3.1,7-7,7h-102.5c-3.9,0-7-3.1-7-7L0,293c0-3.9,3.1-7,7-7Z" fill="#f0dbb7"></path>
  <g id="e82BkM4uXQh12_ts" transform="translate(116.5,399.100006) scale(0.432189,0.432189)">
    <circle id="e82BkM4uXQh12" r="69" transform="translate(0,-0.000006)" fill="none" stroke="#4453f7" stroke-width="3"></circle>
  </g>
  <g id="e82BkM4uXQh13_ts" transform="translate(116.5,399.100006) scale(0.760797,0.760797)">
    <circle r="30" transform="translate(0,-0.000006)" fill="#4453f7"></circle>
  </g>
  <path d="M116.5,399.1L195.7,615l33.8-104.4l102.9-38.9-215.9-72.6Z" fill="#22232e"></path>
</svg>
